<?xml version="1.0" encoding="utf-8"?>
<!-- Generator: Adobe Illustrator 28.1.0, SVG Export Plug-In . SVG Version: 6.00 Build 0)  -->
<svg version="1.1" id="Layer_1" xmlns="http://www.w3.org/2000/svg" xmlns:xlink="http://www.w3.org/1999/xlink" x="0px" y="0px"
	 viewBox="0 0 1202 229" style="enable-background:new 0 0 1202 229;" xml:space="preserve">
<style type="text/css">
	.st0{fill:#17479A;}
	.st1{fill:#D41921;}
	.st2{fill:#82298C;}
	.st3{fill:#E85E2D;}
	.st4{fill:#F7AC40;}
	.st5{fill:#FFEE00;}
</style>
<g>
	<g>
		<g>
			<path class="st0" d="M17.12,228.06c56.71,0.67,103.29-3.62,138.84-64.45c8.24-14.09,16.35-29.54,22.7-42.12
				c-0.4,0.96-0.73,1.94-0.98,2.94c-7.38,32.88,54.09,35.33,53.14,43.16c-0.86,6.93-37.48,4.59-61.62-3.51
				c-0.12-0.03-0.21-0.1-0.33-0.13c-4.63-1.56-6.58-4.28-6.58-4.28l0.19,1.87h-0.03c0,0,0.06,0.12,0.06,0.29l0.94,8.78
				c0.89,9.25,2.12,22.3,2.12,22.3s128.02,16.93,130.63-24.72c1.97-31.49-59.72-35.65-59-42.55c0.65-6.48,30.68-7.11,48.92-4.29
				c0.03,0.01,0.06,0.01,0.12,0.01c8.13,1.33,9.29,5.74,9.29,5.74l1.35-3.06l0.03,0.03c0.03-0.17,11.16-25.25,12.09-27.44
				l-8.71,88.27v0.03c-0.78,5.4-5.05,8.31-5.05,8.31l8.63,0.05l39.72,0.23l37.04-49.78l-4.12,41.66c-0.77,5.36-5.04,8.25-5.04,8.25
				l4.22,0.03v0.02l44.15,0.23l71.78-96.46l-30.14-0.16l-3.8-0.02c0,0,1.7,2.55-0.72,6.08l-32.45,43.62l4.11-41.68
				c0.81-5.33,5.03-8.19,5.03-8.19l-13.72-0.08v0.03l-34.69-0.19l-36.96,49.7l4.1-41.42c0,0,0.03-0.06,0.03-0.11
				c0.77-5.42,5.04-8.31,5.04-8.31l-4.25-0.03v-0.02l-44.15-0.24v0.02c-2.28-0.12-112.89-5.88-129.6,23.55
				c6.87-13.65,11.53-23.6,11.81-24.06l-80.29-0.45c0.89,0.26,5.29,2.71,3.77,6.88v0.01c-4.28,14.24-14.64,47.25-26.19,71.67
				c-15.05,32.02-48.71,43.59-71.83,51.65"/>
			<path class="st1" d="M289.72,30.21l-39.19,26.39c84.43,2.91,141.95-23.7,141.95-23.7C331.13,62.31,266.55,64.65,239.4,64.1
				l-46.64,31.42c0,0,145.31-2.8,238.29-91.53C431.04,3.99,373.65,46.04,289.72,30.21"/>
			<path class="st0" d="M789,145.2l0-48c6.28,0,12.09-0.16,17.87,0.17c0.81,0.04,2.11,2.42,2.13,3.72
				c0.16,13.29,0.1,26.58,0.1,39.87v50.38v5.03h-16.35c-5.95-21.63-16.21-41.27-30.4-58.84c-3.08-3.82-6.58-7.31-10.91-10.6v69.46
				l-19.94,0l0-99.1c6.8,0.25,13.33-1.53,19.55,4.1c13.31,12.05,25.07,25.26,34.6,40.46c0.76,1.21,1.51,2.43,2.27,3.64
				C788.27,145.38,788.64,145.29,789,145.2"/>
			<path class="st0" d="M672.73,196.46l-20.97,0c-0.64-6.82-1.27-13.57-1.93-20.56l-38.3,0c-0.67,6.66-1.35,13.42-2.07,20.46h-21.2
				c0.7-6.57,1.19-13.04,2.13-19.44c3.33-22.94,9.5-45,20.87-65.39c0.06-0.13,0.13-0.26,0.2-0.39
				c8.08-14.07,10.56-15.42,26.65-13.88c1.34,0.14,2.88,1.24,3.78,2.34c7.91,9.71,13.31,20.82,17.77,32.44
				c7.52,19.62,11.44,40.01,13.06,60.91C672.79,193.94,672.73,194.96,672.73,196.46 M647.25,158.84
				c-3.22-15.67-8.01-30.34-16.6-44.38c-8.46,14.32-13.52,28.76-16.35,44.38H647.25z"/>
			<path class="st0" d="M532.05,167.14v29.24h-20.23l0-99.2c11.55,0,23.04-0.11,34.54,0.06c3.91,0.06,7.89,0.48,11.71,1.29
				c18.32,3.93,27.03,15.64,26.61,35.47c-0.38,17.72-10.18,29.15-27.9,32.14c-4.29,0.73-8.7,0.79-13.05,0.97
				C540.09,167.27,536.46,167.14,532.05,167.14 M532.09,150.4c6.18,0,11.73,0.33,17.22-0.08c7.38-0.55,12.39-4.33,13.52-10.94
				c0.82-4.75,0.74-9.89-0.11-14.66c-1.13-6.26-5.82-9.7-12.04-10.31c-5.21-0.53-10.48-0.48-15.73-0.33
				c-0.98,0.03-2.72,1.73-2.73,2.66C532.02,127.8,532.09,138.86,532.09,150.4"/>
			<path class="st0" d="M969.59,119.64c-8.77-4.35-17.72-6.6-27.26-6.09c-6.62,0.36-10.35,2.76-11.67,7.36
				c-1.46,5.14,0.55,9.65,6.1,12.02c4.25,1.82,8.9,2.72,13.27,4.27c5.06,1.81,10.25,3.45,14.99,5.92
				c19.28,10.08,17.08,36.63,2.51,47.1c-10.05,7.23-21.42,8.9-33.31,7.78c-5.48-0.5-10.98-1.58-16.24-3.18
				c-9.49-2.86-11.67-7.51-8.59-16.97c0.65-2.01,1.7-3.9,2.7-6.1c9.95,5.87,20.09,9.11,31.23,8.46c2.16-0.14,4.36-0.47,6.45-1.04
				c4-1.08,6.59-3.75,7.35-7.85c0.78-4.24-0.36-8.21-4.17-10.28c-4.29-2.32-9.04-3.83-13.64-5.55c-5.17-1.93-10.62-3.24-15.56-5.64
				c-9.93-4.82-15.08-12.95-14.9-24.2c0.19-11.68,5.09-20.63,15.72-25.76c12-5.81,24.63-4.93,37.28-2.52
				c0.15,0.02,0.28,0.12,0.42,0.14C974.63,98.85,977.23,107.01,969.59,119.64"/>
			<polygon class="st0" points="872.5,114.59 872.5,196.32 852.25,196.32 852.25,114.82 821.72,114.82 821.72,97.41 903,97.41 
				903,114.59 			"/>
			<path class="st0" d="M689.79,97.18c6.14,0,11.93,0.04,17.73-0.03c3.03-0.03,2.64,2.07,2.64,3.93
				c0.02,13.12,0.02,26.25,0.02,39.37v50.3v5.55l-20.39,0L689.79,97.18z"/>
		</g>
		<g>
			<g>
				<path class="st0" d="M1178.18,116.45c-6.75-16.37-15.47-27.36-15.47-27.36l-58.54-85.1l-59.27,84.58c0,0-8.81,10.91-15.71,27.22
					c-5.07,10.14-7.94,21.47-8,33.44v0c-0.19,43.37,36.52,78.68,82,78.88c45.48,0.2,82.5-34.79,82.69-78.15
					C1185.94,137.98,1183.17,126.63,1178.18,116.45"/>
				<path class="st2" d="M1103.26,213.95c-37.18-0.16-67.3-29.16-67.14-64.64c0.04-9.59,2.25-18.82,6.56-27.42l0.2-0.4l0.17-0.41
					c5.97-14.12,13.62-23.78,13.69-23.88l0.31-0.37l36.61-52.23c0,0,7.32-12.38,10.4-12.36c2.92,0.01,8.83,10.31,8.83,10.31
					l37.62,54.69l0.31,0.38c0.05,0.07,7.64,9.82,13.48,24l0.17,0.41l0.19,0.4c4.23,8.64,6.36,17.88,6.32,27.48
					C1170.82,185.38,1140.44,214.11,1103.26,213.95"/>
				<path class="st1" d="M1157.8,149.19c-0.12,28.46-24.52,51.43-54.48,51.29c-29.96-0.13-54.15-23.31-54.02-51.77
					c0.13-28.46,24.61-72.05,54.57-71.92C1133.83,76.93,1157.92,120.73,1157.8,149.19"/>
				<path class="st3" d="M1142.86,149.13c-0.09,20.62-17.76,37.27-39.48,37.17c-21.71-0.09-39.24-16.89-39.15-37.51
					c0.09-20.62,17.79-44.4,39.5-44.31C1125.45,104.57,1142.95,128.5,1142.86,149.13"/>
				<path class="st4" d="M1130.28,149.07c-0.06,14.03-12.08,25.34-26.84,25.28c-14.76-0.07-26.68-11.49-26.62-25.51
					c0.06-14.03,12.08-25.34,26.84-25.28C1118.42,123.63,1130.34,135.04,1130.28,149.07"/>
				<path class="st5" d="M1118.59,149.02c-0.04,7.89-6.8,14.26-15.11,14.22c-8.31-0.04-15.01-6.47-14.98-14.36
					c0.03-7.89,6.8-14.26,15.11-14.22C1111.92,134.7,1118.63,141.12,1118.59,149.02"/>
			</g>
		</g>
	</g>
</g>
</svg>
